<svg xmlns="http://www.w3.org/2000/svg" width="430" height="430" viewBox="0 0 430 430">
  <g id="Group_1" data-name="Group 1" transform="translate(-1430 -539)">
    <path id="Path_12" data-name="Path 12" d="M385.1,254.3l-86.3-49.8v71.6a35.66,35.66,0,0,1-1.8,11,39.491,39.491,0,0,1-5.3,10.7c-6.6,9.8-17.1,17.5-29.5,21.8a61.653,61.653,0,0,1-20.6,3.6c-19.2,0-35-9.6-40.2-24.5-4.7-13.5-.1-28.6,12.1-40.4a61,61,0,0,1,22.6-13.7,68.9,68.9,0,0,1,12.5-3v-66L193,143.5A14.464,14.464,0,0,0,171.3,156V377.6A14.445,14.445,0,0,0,193,390.1L384.9,279.3A14.3,14.3,0,0,0,385.1,254.3Z" transform="translate(1389 498)" fill="#c6c6c6"/>
    <path id="Path_11" data-name="Path 11" d="M256,41C137.3,41,41,137.3,41,256s96.3,215,215,215,215-96.3,215-215S374.7,41,256,41Zm0,394c-98.9,0-179-80.2-179-179S157.1,77,256,77s179,80.2,179,179S354.9,435,256,435Z" transform="translate(1389 498)" fill="#d1a24e"/>
    <path id="Path_13" data-name="Path 13" d="M220.5,265.5c-9,8.7-13.1,19.9-9.6,29.9,5.4,15.5,26.9,22.1,48.1,14.8,10.7-3.7,19.3-10.3,24.5-17.9a28.3,28.3,0,0,0,4-8.2,24.222,24.222,0,0,0,1.3-7.9V154.6l11-1.2,30.8-3.3V119.9l-41.9,4.5-30,3.3V251.1a51.43,51.43,0,0,0-19.3,3A49.869,49.869,0,0,0,220.5,265.5Z" transform="translate(1389 498)" fill="#d1a24e"/>
  </g>
</svg>
