<svg xmlns="http://www.w3.org/2000/svg" width="375" height="69.001" viewBox="0 0 375 69.001">
  <path id="Subtraction_1" data-name="Subtraction 1" d="M375,69H0V0H375V69ZM63.676,49.954v.257H64.8c.244.122.368.246.368.368V51.7c1.532.086,2.664.13,3.365.13H85.157a.229.229,0,0,0,.257-.258V50.45l-.129-.239-.753.111c-.446-.075-.693-.111-.754-.111v-.257h.01a1.177,1.177,0,0,0,.615-.128l.753.129c.171,0,.257-.081.257-.239V45.963l.111-.625-.239-.129H75.907l-1.251-.129c0,.085-.081.129-.239.129s-.232-.087-.257-.257V37.466c0-.134-.291-.264-.864-.386l.111-.239v-13c0-.135-.081-.215-.239-.239h-1.38v-.257c0-.134.087-.214.257-.239h1.122l.993-.754v-2.63c0-.158-.21-.239-.625-.239-.086-1-.21-1.508-.368-1.508H64.541c-.136,0-.214.084-.239.257v1.122c.574,0,.865.248.865.735v2.262c0,.159-.124.239-.368.239a3.179,3.179,0,0,1-2,.754v.129c1,.085,1.507.209,1.507.368V36.969c0,.1.291.309.865.625V49.586c-.134.244-.258.368-.368.368Zm256.1-2.962h0c.468.025,1.056.038,1.747.038h.257c.159,0,.239.087.239.257v4.487h13.738a15.823,15.823,0,0,0,9.1-3.365,6,6,0,0,1,1.489-1.122c0-.146-.086-.233-.257-.257h-3.237V46.9c0-.4.631-.607,1.876-.607h2.373l1.858-2.263H351.1a1.47,1.47,0,0,0,.735-.239.244.244,0,0,0-.238-.257h-2.372v-.11c0-.147.087-.233.257-.257a17.683,17.683,0,0,0,2.115-7.118v-.238c0-.147-.087-.233-.257-.257h-1.362V34.56h1.362a.228.228,0,0,0,.257-.257V33.7h.993l.625.11a1.338,1.338,0,0,0,.257-.367v-.257a13.7,13.7,0,0,0-2.244-6.6h-1.747a19.668,19.668,0,0,0-4.616-5.112,14.4,14.4,0,0,0-5.1-2.621A24.068,24.068,0,0,0,333,17.971h-7.1c-.825,0-2.087.043-3.751.129l-.129.239v7.981c1.33.147,2,.321,2,.516v6.6c0,.244-.544.367-1.618.367l-.883.754-.239-.129a3.7,3.7,0,0,0-.626.1V27.977c-.134-.244-.264-.368-.386-.368h-.735v-.386h.735c.256-.123.386-.247.386-.368V25.107c-.048-.244-.345-.368-.883-.368V18.284a.244.244,0,0,0-.239-.257l-.257.129a.135.135,0,0,0-.032-.1.13.13,0,0,0-.1-.033h-4.469c-.825,0-2.081.043-3.733.129l-.129.239v6.216c0,.171.254.257.754.257v2.226h-.865c-.147,0-.233.087-.257.257v.129c0,.158.087.239.257.239l.239-.11a.05.05,0,0,0,.015.031c.052.053.252.079.611.079v6.6a1.427,1.427,0,0,0,.367.864v0h-.007a.87.87,0,0,0-.362.127,3.477,3.477,0,0,0,.625,1.232c0,.086-.21.172-.625.257a3.057,3.057,0,0,1,.753,1.729v.625l-.129.625a17.181,17.181,0,0,1-2.244-2.98l.625-.257c-3.788-5.513-6.213-8.985-7.209-10.318l.129-.239.238.11h.754l.736-.11a1.1,1.1,0,0,0,.5.11,1.039,1.039,0,0,0,.5-.11,1.105,1.105,0,0,0,.5.11h.386a.212.212,0,0,0,.239-.238.245.245,0,0,0-.239-.258h-3.992c-.585-.573-1.043-.864-1.361-.864-.331-.135-1.964-2.351-4.855-6.584-2.876-.086-4.663-.129-5.463-.129-.712,0-1.933.042-3.733.129l-.129.239v4.552a1.112,1.112,0,0,1-.147.009h-.5c-.244-.134-.368-.258-.368-.368V18.339c-.134-.244-.258-.368-.368-.368H268.5c-.812,0-2.068.043-3.733.129l-.129.239V22.7a.228.228,0,0,0,.257.257h1.49c.173,0,.257.078.257.239v.258l-.883.5v1.986h.257c.9,0,1.362.13,1.362.386v7.6c-1.331.075-2.1.111-2.354.111s-.386.087-.386.257v4.1c0,.171-.081.257-.239.257H262.91c-.147,0-.233.087-.257.257,0,.158.087.238.257.238h1.618l.239.13-.129.239v4.249c.586.048.883.253.883.607a1.008,1.008,0,0,1-.129.515c-.5.134-.754.258-.754.368a.978.978,0,0,0,.129.5l-.129.257a.483.483,0,0,0,.065.275.221.221,0,0,0,.193.092h.5l1.25.129v.239h-.5c-.765,0-1.854.043-3.237.129a.244.244,0,0,0-.257.239v.257a.228.228,0,0,0,.257.257h1.1l.626.111v3l.129.239h0a.111.111,0,0,0-.124.127v.257c.134.244.264.368.386.368h.735l.257-.129a.135.135,0,0,0,.032.1.132.132,0,0,0,.1.033h20.414V46.993l.626-.129h.386v3.991l.129.239h0a.111.111,0,0,0-.124.127v.129l.129.239c1.528.085,2.661.129,3.366.129h5.462l.257-.129-.129-.625a.977.977,0,0,1,.129-.5l-.129-.735V45.5l-.626-.5v-.754h.007a1.153,1.153,0,0,0,.748-.237l-.129-.625V39.655l.129-1.49h1.232c.244-.122.368-.245.368-.367v-.368a.244.244,0,0,0-.239-.257h-1.361v-.239l.735-.5v-6.6h.129a5.626,5.626,0,0,1,1.362,2.483v1.747l1.747,2.483c0,.086-.211.172-.626.257l3.476,4.966v.257h-.367a12.8,12.8,0,0,0,1.876,2.722c.439.916.854,1.38,1.232,1.38.366.122,1.7,1.959,3.973,5.462,1.663.085,2.92.129,3.733.129h5.591l.258-.129-.13-.625V46.993ZM150.888,45.54c-.122,0-.252.173-.386.515a.881.881,0,0,0,.129.368c.745.256,1.122.467,1.122.625v.625a.977.977,0,0,1-.129.5.916.916,0,0,1,.129.5V49.4l-.129.883a.114.114,0,0,1,.129.129l.883.5v.735c1.508.085,2.635.129,3.347.129h5.48l.258-.129a2,2,0,0,0-.258-.993.966.966,0,0,0-.5.129c-.135,0-.215-.087-.239-.257V46.919l.111-.257a.114.114,0,0,1,.129.129.771.771,0,0,0,.754-.625.97.97,0,0,1-.129-.5V36.951h-2.612a.243.243,0,0,1-.257-.239v-.5c0-.147.087-.233.257-.257h1.25l.607-.129a.083.083,0,0,0,.024.057.566.566,0,0,0,.362.072h.735c.256-.134.386-.258.386-.367V35.2a1.351,1.351,0,0,1-.257-.367h-.005a.953.953,0,0,0-.491.128c-.66-.049-.994-.173-.994-.368V19.9a.889.889,0,0,0,.368-.129V19.9h.005a.96.96,0,0,0,.491-.128,3.044,3.044,0,0,1,.5.129l.386-.257c0-.134-.086-.222-.257-.258h-1.361c-.085-.9-.215-1.361-.386-1.361h-8.589c-.135,0-.215.087-.239.257v1.233h-.626v.257a1.422,1.422,0,0,1,.736.129l-.111.239v10.3h-.864V30.7h.864v3.9c.122.244.245.368.368.368h.239l.882-.129.239.367v.387a.21.21,0,0,1-.239.239h-2.611l-.257.129a.135.135,0,0,0-.032-.1.131.131,0,0,0-.1-.033c-.244.134-.368.264-.368.386v.368l.129.239c.289,0,1.193.045,2.612.129a.228.228,0,0,1,.257.257v9.214c0,.158-.087.239-.257.239h-.626c-.1-.744-.221-1.121-.368-1.121ZM136.8,43.922c0,.329,1.219,2.346,3.623,5.995v.111h-.01a1.177,1.177,0,0,0-.615.128,12.885,12.885,0,0,0,.994,1.508c1.541.073,2.674.11,3.365.11h6.253l.239-.11a6.362,6.362,0,0,0-.865-1.508c0-.1.167-.179.5-.239,0-.11-1.305-2.041-3.881-5.737,0-.171.211-.257.626-.257v-.13a1.581,1.581,0,0,0-1.618-1.25l-1.122-1.361h-3.108c-.147,0-.233-.087-.257-.257V40.8h.02c.488,0,1.49-.037,2.978-.11v-.129l-.129-.257h0a1.387,1.387,0,0,0,.62-.238,15.274,15.274,0,0,0-1.379-2v-.129l1.876-.736a10.756,10.756,0,0,0,4.487-5.737c0-.085-.062-.15-.184-.193a1.771,1.771,0,0,0-.551-.065c.247-1.71.368-2.69.368-3a14.09,14.09,0,0,0-.883-3.991,7.862,7.862,0,0,0-3.366-4.119.977.977,0,0,1,.129-.5,2.453,2.453,0,0,0-1.379-.754c-1.074-.573-3.215-.864-6.364-.864h-8.717c-.582,0-1.51.043-2.758.129a.1.1,0,0,0-.029-.074.3.3,0,0,0-.21-.055,1.2,1.2,0,0,1-.626.129h-.883c-.134,0-.214.081-.239.239v1.25l-.754.5v8.368l-.865.5v.625a.881.881,0,0,1,.994.994c.1,0,.5-.042,1.251-.129a.867.867,0,0,1,.367.129l-.129.754h-.625c-.134,0-.214.08-.239.239v3.146h-.019l-.257.11a.116.116,0,0,0-.027-.082.111.111,0,0,0-.083-.028h-1.214c-.134,0-.214-.081-.239-.239,0-1.525-.161-2.3-.478-2.3h-.239a1.321,1.321,0,0,0-.607.11,9.822,9.822,0,0,0-2.06-.11v-.129h2.906l.349-.239a19.638,19.638,0,0,0-4.1-8.221V23.47h.01a1.135,1.135,0,0,0,.6-.128.143.143,0,0,0,.032.1.1.1,0,0,0,.078.028h.607a.212.212,0,0,0,.239-.239V23.1l-.589-.129h-1.342a2.671,2.671,0,0,0-1.453-.478c-1.94-1.525-3.072-2.3-3.365-2.3v-.239h.008a1.042,1.042,0,0,0,.47-.11,13.65,13.65,0,0,0-7.246-1.821c-4.112,0-7.286.65-9.435,1.931H94.923a27.35,27.35,0,0,0-3.384,2.3.182.182,0,0,0,.053.132.617.617,0,0,0,.425.107l-.111.239.111.238.607-.11h.129a1.461,1.461,0,0,1,.717.239c0,.245-.526.368-1.563.368-.586,0-1.242.489-1.949,1.453a18.276,18.276,0,0,0-3.127,8.442.976.976,0,0,0,.111.368.985.985,0,0,0,.367-.111.974.974,0,0,0,.368.111v.478c-.647.085-.975.209-.975.368a.212.212,0,0,0,.239.238H89c.305.562.509.846.607.846h4.34a.212.212,0,0,1,.239.239v.129h-1.8c-.557,0-1.454.043-2.667.129a.142.142,0,0,0-.032-.1.1.1,0,0,0-.078-.028l-.129.239v.367a16.535,16.535,0,0,0,2.059,6.529l-.607.11H89.369c-.171,0-.257.124-.257.368h-1.2v.239H89a.873.873,0,0,1,.479.129,21.649,21.649,0,0,0,3.751,3.973,16.843,16.843,0,0,0,8.331,3.513.869.869,0,0,0,.368-.129,4.906,4.906,0,0,0,1.931.257h1.324a21.236,21.236,0,0,0,5.2-.736,16.791,16.791,0,0,0,8.7-6.878.032.032,0,0,0-.011-.022,3.669,3.669,0,0,0-1.314-.107c0-.135.081-.215.239-.239h1.2l.5-.368H122l.239-.11c.262-.466.5-.934.717-1.391v6.007a.228.228,0,0,0,.257.257h1.361v.368h-1.361c-.147,0-.233.087-.257.257v3c1.683.074,2.911.11,3.752.11h5.113l.238-.11a1,1,0,0,0-.11-.387,1.1,1.1,0,0,0,.11-.5v-1.49l-.11-.257c.073,0,.11-.211.11-.625h1.38c.171,0,.257-.081.257-.239s-.087-.233-.257-.257h-1.38V42.174l-.11-.257h0a.1.1,0,0,0,.1-.108v-.625H134.3c.354,0,.862.421,1.508,1.25a1.506,1.506,0,0,1,1.49,1.232v.258Zm62.641-2.005-.239.129.238,1.214a10.967,10.967,0,0,0,4.415,5.756,5.164,5.164,0,0,1,2.207.864,22.24,22.24,0,0,0,9.2,1.84,3.632,3.632,0,0,1,.975-.129,16.518,16.518,0,0,0,7.467-2.078v-.129c0-.135-.081-.215-.239-.239a12.672,12.672,0,0,0,4.175-5.021c.293-1.464.578-2.207.846-2.207h1.471c.159,0,.282-.415.367-1.232a.879.879,0,0,1-.129-.478V31.139l.129-.607-.367-.257h-1.232l-.607-.111.129-.257c0-.078-.051-.139-.152-.178a1.311,1.311,0,0,0-.455-.06v-.976c.477,0,.717-.372.717-1.1h.257a9.608,9.608,0,0,0,1.729-.122v.38h1.343c.122,0,.245.161.367.479l.846.5c0,.159-.2.239-.607.239V29.3h1.563v.238h-.013a1.334,1.334,0,0,0-.7.129.137.137,0,0,0-.032-.1.13.13,0,0,0-.1-.033h-.478l-.239.13a5.659,5.659,0,0,0,1.085,2.776,9.313,9.313,0,0,0,5.094,3.752v.239H237.6v.238a12.853,12.853,0,0,1,2.188.736.881.881,0,0,0,.479-.129,3.33,3.33,0,0,0,.846.129l3.4,1.084v.239c-1.441.088-2.212.129-2.427.129h-.129V39.1a.868.868,0,0,1,.367.129l.239-.129a9.222,9.222,0,0,0,1.343.129h1.213a1.018,1.018,0,0,1,.957.607v.111h-1.214a5.717,5.717,0,0,1,.607,1.692c0,1.672-1.058,2.693-3.146,3.034a6.288,6.288,0,0,1-4.119-1.821v-.239h.368v-.239c-.744-1.208-1.19-1.821-1.325-1.821H235.8a35.413,35.413,0,0,1-3.513,2.06l-.5-.111a31.3,31.3,0,0,0-2.777,1.692,3.12,3.12,0,0,0,1.213,1.931c0,.744,1.058,1.19,3.146,1.324a13.982,13.982,0,0,0,4.841,3.09,17.125,17.125,0,0,0,6.064,1.03h.111c3.612,0,6.508-.811,8.608-2.409a9.513,9.513,0,0,1,1.563-1.581c0-.133-.08-.214-.239-.239h-1.692V47.1c0-.135.081-.215.239-.239a10.448,10.448,0,0,0,1.453-4.727c-.085-.954-.129-1.647-.129-2.059v-.129h1.214a.212.212,0,0,0,.239-.239V39.47c-.122-.243-.239-.367-.349-.367h-1.581c0-.135.081-.215.238-.239h1.214l.239-.129c-.257-.964-.5-1.453-.717-1.453h-1.453c-.061-.4-.184-.608-.367-.608,0-.159.489-.276,1.453-.349a7.792,7.792,0,0,1-1.214-1.453,20.282,20.282,0,0,0-7.632-3.881c-1.66-.586-2.514-.994-2.538-1.214v-.11h2.427V29.3h-2.906l-.238-.129.11-.239c0-.208-.285-.369-.846-.478a1.928,1.928,0,0,0-1.085-.608h-1.085l-.129-.607c.061-1.123.265-1.692.607-1.692,0-.646.817-.975,2.428-.975h.11c.855.11,2.117.964,3.752,2.538h1.692c3.026-2.83,4.579-4.333,4.616-4.469v-.129a11.381,11.381,0,0,0-2.188-2.17l.033,0a1.871,1.871,0,0,0,.942-.127c-.123-.244-.247-.368-.368-.368h-1.214a18.433,18.433,0,0,0-3.145-1.2h-.717a6.829,6.829,0,0,0-3.513-.607h-.368a.878.878,0,0,1-.478-.129.978.978,0,0,1-.5.129h-1.821c-1.928.17-2.906.374-2.906.607,0,.122-.526.487-1.563,1.085v.11h.717l.257.129c0,.16-.248.283-.735.368l-.239-.129-.238.129a.135.135,0,0,0-.032-.1.131.131,0,0,0-.1-.033h-.368a8.468,8.468,0,0,0-3.513,6.657v.221h-1.858c-.134,0-.214-.081-.239-.239V18.266c0-.136-.084-.214-.257-.239h-8.331c-.134,0-.214.081-.238.239v8.828c.537,0,1.36.044,2.445.129v.239h-2.207c-.158,0-.238.328-.238.975l-.736.5v.736c.574.048.865.3.865.735.073,0,.11-.044.11-.129a3.134,3.134,0,0,1,1.729.368l-.129.607V36.4c0,.171.081.257.239.257A3.074,3.074,0,0,0,221.253,38v2.078l-.129.607c-.208.818-.66,1.232-1.343,1.232h-.975c-.134,0-.214.081-.239.239a7.6,7.6,0,0,1-4.175,2.942,7.518,7.518,0,0,1-2.7-.478c-1.867-1-2.814-1.91-2.814-2.7H209a6.051,6.051,0,0,1,1.1.129l.5-.257a.993.993,0,0,0-.367-.846c-.171-1.22-.419-1.839-.736-1.839l-.5.11-.864-.11v-.129a.979.979,0,0,0,1.1-1.1.982.982,0,0,1-.11-.478v-.257h.008a.968.968,0,0,0,.47-.11.111.111,0,0,0,.027.078.137.137,0,0,0,.1.032.212.212,0,0,0,.239-.239V30.533a.244.244,0,0,0-.239-.257h-1.471c-.293-.4-.583-.607-.864-.607v-.736l.625-.5V27.59h.111c.544,0,1.373-.043,2.464-.129v-.129c0-.134-.087-.214-.257-.239H208.03V18.266c0-.136-.084-.214-.257-.239h-8.441a.244.244,0,0,0-.257.239v8.589l.129.239c.426,0,1.249.044,2.446.129v.239H199.2c0,.891-.248,1.343-.736,1.343l.129.625V29.8h.239c.111,0,.278.2.5.607h.478l.257-.129V30.4a.879.879,0,0,0,.368-.129c.488.109.735.276.735.5-.087,0-.129.038-.129.11v.257a1.619,1.619,0,0,0,.129.846,6.046,6.046,0,0,0-.129,1.1V35.3l.129.864c-.086,0-.129.248-.129.735l-.55.316a14.439,14.439,0,0,0,.164-2.155c0-.183-.247-.3-.735-.349h-.111l-.257.11a.115.115,0,0,0-.027-.082.113.113,0,0,0-.083-.028h-1.213c-.135,0-.215-.081-.239-.239,0-1.525-.161-2.3-.478-2.3h-.239a1.321,1.321,0,0,0-.607.11,9.833,9.833,0,0,0-2.06-.11v-.129h2.906l.349-.239a19.638,19.638,0,0,0-4.1-8.221V23.47h.01a1.128,1.128,0,0,0,.6-.128.142.142,0,0,0,.032.1.106.106,0,0,0,.079.028h.607a.212.212,0,0,0,.239-.239V23.1l-.589-.129H193.39a2.67,2.67,0,0,0-1.453-.478c-1.94-1.525-3.072-2.3-3.366-2.3v-.239h.008a1.043,1.043,0,0,0,.471-.11,13.656,13.656,0,0,0-7.247-1.821c-4.111,0-7.286.65-9.435,1.931h-1.324a27.357,27.357,0,0,0-3.384,2.3.182.182,0,0,0,.054.132.615.615,0,0,0,.424.107l-.11.239.11.238.607-.11h.129a1.461,1.461,0,0,1,.717.239c0,.245-.526.368-1.563.368-.586,0-1.242.489-1.949,1.453a18.276,18.276,0,0,0-3.127,8.442.99.99,0,0,0,.11.368.985.985,0,0,0,.368-.111.974.974,0,0,0,.368.111v.478c-.647.085-.975.209-.975.368a.211.211,0,0,0,.238.238h2.06c.31.569.508.846.607.846h4.341a.212.212,0,0,1,.239.239v.129h-1.8c-.565,0-1.437.042-2.667.129a.141.141,0,0,0-.032-.1.106.106,0,0,0-.079-.028l-.129.239v.367a16.537,16.537,0,0,0,2.06,6.529l-.607.11h-1.563c-.171,0-.257.124-.257.368h-1.2v.239h1.085a.871.871,0,0,1,.478.129,21.655,21.655,0,0,0,3.752,3.973,16.843,16.843,0,0,0,8.331,3.513.881.881,0,0,0,.368-.129,4.9,4.9,0,0,0,1.931.257h1.325a21.248,21.248,0,0,0,5.2-.736,16.784,16.784,0,0,0,8.7-6.878.032.032,0,0,0-.011-.022,3.664,3.664,0,0,0-1.313-.107c0-.135.081-.215.239-.239h1.2l.5-.368h2.3l.239-.11a18.879,18.879,0,0,0,1.691-3.955h.755l.367.257a.865.865,0,0,1-.129.368l.129,1.71c-.134.244-.258.368-.367.368ZM24.926,38.938v.735c.965,2.5,1.658,3.882,2.06,4.1h3.255a18.028,18.028,0,0,0,6.317,5.89,17.29,17.29,0,0,0,8.285,1.963h2.3a19.114,19.114,0,0,0,3.016-.368A21.632,21.632,0,0,0,56.343,48.2a13.861,13.861,0,0,0,3.949-4.428.879.879,0,0,1,.479.129c.695,0,1.512-1.584,2.427-4.708v-.129c0-.159-.2-.239-.607-.239,0-.434.036-1.222.11-2.409.086-.83.334-1.362.736-1.581v-.717l-.736-.846h-2.17a.871.871,0,0,0-.478.129.932.932,0,0,0-.478-.129H47.014c-.422,0-1.109.043-2.042.129a.1.1,0,0,0-.028-.072.328.328,0,0,0-.229-.057,1.35,1.35,0,0,1-.239.367c0,.135.2.253.607.35a1.092,1.092,0,0,1-.111.5l.111.239c0,.159-.2.363-.607.607V38.7a.212.212,0,0,0,.239.239H54.37v.129A9.48,9.48,0,0,1,52.439,41.6c-.1.3-1.069,1.078-2.887,2.3a.867.867,0,0,1-.368-.129,14.594,14.594,0,0,0-3.127.846,16.511,16.511,0,0,1-4.119-.846H38.921a3.829,3.829,0,0,1-1.692-.846,7.628,7.628,0,0,1-3.255-3.862v-.129a.865.865,0,0,1,.368.129l.239-.129a.865.865,0,0,1,.367.129l.717-.129H36.88l.239-.111a14.225,14.225,0,0,1-.717-3.862V33.99c.476-2.4.958-3.784,1.435-4.1h2.905a.212.212,0,0,0,.239-.239v-.111h-2.17L37.6,29.41c0,.086-.079.129-.239.129-.134,0-.214-.087-.239-.257v-.11a2.589,2.589,0,0,0,1.563-.479c.842-1.378,2.673-2.517,5.443-3.384l.239.111a.987.987,0,0,1,.478-.111h1.931a3.082,3.082,0,0,0,1.8.479h.5a8.881,8.881,0,0,0,1.563.717v.257h-.478v.11c.049.185.362.426.957.736l2.3,2.759h.956a5.969,5.969,0,0,0,2.538-1.2c2.649-1.159,3.992-1.933,3.992-2.3.476-.134.717-.257.717-.367-.183-.476-.672-.717-1.454-.717A16.359,16.359,0,0,0,54.5,20.472v-.11a3.905,3.905,0,0,1,1.084-.13v-.11a16.035,16.035,0,0,0-7.963-2.06,20.183,20.183,0,0,0-8.2,1.453,6.11,6.11,0,0,1-3.273.846,16.285,16.285,0,0,0-7.228,8.57c-.806.2-1.214.356-1.214.478,1.7.085,3,.129,3.862.129h.129v.239h-.019c-.464,0-1.479.037-3.014.11-.281,0-.6,1.547-.957,4.6v.589l.478,3.863ZM138.677,50.156v.129c.219.4.386.613.5.625v-.257a.846.846,0,0,1-.257-.5Zm25.472-10.869-.239.129c.086.476.21.717.368.717h.368l.349-.239-.111-.607Zm-76.122,0-.239.129c.085.476.208.717.367.717h.368l.349-.239-.11-.607Zm151.287-.423V39.1h.349l.846.129v-.368Zm-75.883-3.2v.368h1.324l.239-.129c0-.133-.08-.214-.239-.239Zm-76.122,0v.368h1.325l.239-.129c0-.135-.078-.214-.239-.239Zm176.465-2.74c-.134,0-.221.08-.257.238v.625c0,.159.087.239.257.239h.625a.212.212,0,0,0,.239-.239v-.625c0-.134-.081-.214-.239-.238Zm-221.1.349h0c-.244.122-.368.245-.368.367a.212.212,0,0,0,.239.239H43.63a.212.212,0,0,0,.238-.239C43.869,33.457,43.467,33.334,42.674,33.273Zm-1.581.129c-.135,0-.215.08-.239.238a.21.21,0,0,0,.239.239h.5V33.64c0-.134-.08-.214-.239-.238ZM26.728,29.043c-.136,0-.214.078-.239.239l.129.257a3.553,3.553,0,0,0,.479-.129v-.367Zm282.6-1.949c-.134,0-.214.087-.238.257.122.243.245.367.367.367.171,0,.258-.08.258-.239v-.129c0-.134-.087-.221-.258-.257Zm12.083-.516c-.147,0-.233.087-.257.258V27.2l.129.239c.415-.1.625-.221.625-.368v-.238c0-.148-.084-.233-.257-.258Zm-37.721,21.04h-1.729c-.146,0-.232-.087-.257-.257v-.5h1.986a.88.88,0,0,0,.129.368.89.89,0,0,0-.129.385Zm-14.308-.883h-1.121c0-.136.078-.214.238-.239h.883v.238Zm18.189-.368h-.883c-.085-.83-.208-1.25-.367-1.25H274.478v-.129a.965.965,0,0,1,.13-.5.966.966,0,0,1-.13-.5c-.488-.048-.735-.3-.735-.735v-4.12l-1.25-.129h-.754V38.9c0-.147.087-.233.257-.257h.238l.754.129c.574-.049.865-.216.865-.5h10.593l.368-.257-.129-1.251V34.652l.129-.625a.982.982,0,0,1,.386.129l.735-.129.257.129c.9-.086,1.362-.21,1.362-.368V31.912c0-.135-.081-.215-.239-.239H276.483V26.321c0-.146-.087-.232-.257-.257H275.1c-.134,0-.214-.08-.239-.238V24.7c1.782-.086,3.118-.129,3.973-.129h8.589a.311.311,0,0,0,.149-.032c.028.217.28.327.752.327a.767.767,0,0,0,.21.563,1.422,1.422,0,0,0,1.022.3,10.256,10.256,0,0,0,1.618-.129,5.5,5.5,0,0,0,1.38.129h.111v.258c-1.244.073-2.159.11-2.723.11h-1.121c-.171,0-.295.334-.368.994l.111.257-.111.257c.073,1.722.111,3.139.111,4.211v.5l-.111.883c.073,0,.111.168.111.5v.239l-.111.625c.073,0,.111.044.111.129l-.111.5.111.625a1.361,1.361,0,0,0-.111.625v.238h-.626c-.147,0-.233.087-.257.257,0,.159.087.239.257.239h1.232a.226.226,0,0,1,.257.257V37.8c0,.16-.084.238-.257.238h-1.1c-.256.134-.386.265-.386.387v5.591l-.607.5v.5l.607.5v.863Zm-.607-19.274c-.147,0-.233.087-.257.257v.129l.129.239c.414-.061.625-.184.625-.367,0-.134-.087-.221-.257-.257Zm34.815,19.2h-2.022c-.057-.11-.261-.166-.607-.166v-2.98l-.111-.883c.488-.219.735-.386.735-.5V36.932l.883-.5v-.883h.994c.244.135.368.265.368.386V43.3l.129.239c.455,0,1.232.042,2.372.129v.258c-1.136.074-1.954.11-2.5.11v2.005C322.02,46.208,321.939,46.294,321.781,46.294Zm12.1-1.122h-2.63c-.135,0-.215-.087-.239-.257v-.257l.129-.625h.994l.864-.11a.08.08,0,0,0,.023.055.348.348,0,0,0,.235.054l.5-.239-.129-.257a1.023,1.023,0,0,1-.994,0h-1.49l-.129-.625v-.5a.977.977,0,0,1,.129-.5.973.973,0,0,1-.129-.5V36.565l.129-.625c-.183-.256-.312-.386-.386-.386h-1.361v-.736a.243.243,0,0,1,.239-.257h1.121l.5-.864h.754l.625.11c.244-.182.368-.306.368-.367v-6.6a.242.242,0,0,0-.239-.258h-1.508c-.135,0-.215-.087-.239-.257V24.96a.244.244,0,0,1,.239-.257h2.869a7.323,7.323,0,0,1,3.365,1.122c.427.439,1.566.736,3.384.883a11.3,11.3,0,0,1,3.6,6.731V33.7l-.864.11h-.754a1.453,1.453,0,0,1-1.49.754.134.134,0,0,0-.032-.1.131.131,0,0,0-.1-.033c-.244.134-.368.264-.368.386v.5a.212.212,0,0,0,.239.239h1.121l.387.257-.626,2.612a9.582,9.582,0,0,1-3.366,4.873v.239h.239c.412,0,1.043.043,1.876.129l-.129.258H340.6c-.58,0-1.5.037-2.727.109A12.442,12.442,0,0,1,333.882,45.172Zm5.242-11.366v.387a.212.212,0,0,0,.239.239h1.121c.171,0,.257-.08.257-.239v-.13c0-.146-.087-.232-.257-.257ZM180.462,44.492a13.589,13.589,0,0,1-2.888-.607h-1.453v-.239h.717v-.129l-.111-.239h1.692l.239-.11c0-.11-.452-.475-1.343-1.085a10.2,10.2,0,0,1-3.016-5.333V36.16c2.022-.088,3.1-.129,3.384-.129l.607.129a.114.114,0,0,1,.129-.129.767.767,0,0,1,.35.129c.158,0,.238-.087.238-.257v-.239h-.956c-.835,0-2.135-.037-3.863-.11-.109-.562-.232-.846-.367-.846h-2.171V34.34h.589c.171,0,.257-.081.257-.239v-.238l-.735-.5v-.239a10.4,10.4,0,0,1,.846-2.777,11.682,11.682,0,0,1,3.637-3.89,8.452,8.452,0,0,1,4.584-1.3,9.293,9.293,0,0,1,4.469,1.692,9.861,9.861,0,0,1,3.623,4.947v.129h-1.8c-.561,0-1.458.037-2.667.111v.239h4.119l.589.129a9.719,9.719,0,0,0,.125,1.8c.083.4.208.6.372.6h.846l.239-.11c.793.1,1.2.215,1.2.349v.975a20.006,20.006,0,0,1-.717,2.777,9.393,9.393,0,0,1-4.23,4.468.858.858,0,0,0-.846,0H184.93c-1.036.244-1.605.368-1.692.368h-1.324v.239h.607a.212.212,0,0,1,.239.238A11.816,11.816,0,0,1,180.462,44.492Zm-2.171-6.529c-.134,0-.214.08-.239.239v.368a.212.212,0,0,0,.239.239h.129a.212.212,0,0,0,.239-.239V38.2c0-.134-.081-.214-.239-.239ZM104.34,44.492a13.591,13.591,0,0,1-2.887-.607H100v-.239h.717v-.129l-.11-.239H102.3l.239-.11c0-.11-.451-.475-1.342-1.085a10.2,10.2,0,0,1-3.017-5.333V36.16c2.022-.088,3.1-.129,3.384-.129l.608.129a.113.113,0,0,1,.129-.129.767.767,0,0,1,.349.129c.159,0,.239-.087.239-.257v-.239h-.957c-.835,0-2.135-.037-3.862-.11-.11-.562-.234-.846-.368-.846h-2.17V34.34h.589c.171,0,.257-.081.257-.239v-.238l-.736-.5v-.239a10.443,10.443,0,0,1,.846-2.777,11.683,11.683,0,0,1,3.637-3.89,8.454,8.454,0,0,1,4.585-1.3,9.292,9.292,0,0,1,4.469,1.692A9.861,9.861,0,0,1,112.8,31.8v.129H111c-.561,0-1.458.037-2.667.111v.239h4.12l.589.129a9.74,9.74,0,0,0,.125,1.8c.083.4.207.6.371.6h.846l.239-.11c.793.1,1.2.215,1.2.349v.975a20.135,20.135,0,0,1-.717,2.777,9.391,9.391,0,0,1-4.23,4.468.987.987,0,0,1-.367-.11,1,1,0,0,1-.479.11h-1.213c-1.036.244-1.605.368-1.692.368h-1.325v.239h.607a.21.21,0,0,1,.239.238A11.816,11.816,0,0,1,104.34,44.492Zm-2.17-6.529c-.135,0-.215.08-.239.239v.368a.212.212,0,0,0,.239.239h.129a.212.212,0,0,0,.239-.239V38.2c0-.134-.08-.214-.239-.239Zm29.021,3.218h-2.244c-.147,0-.233-.087-.257-.257V40.8h2.74v.129C131.43,41.095,131.349,41.181,131.191,41.181Zm.863-.386h0a.948.948,0,0,0-.109-.367c.16,0,.238-.088.238-.257l.257.129h.239c.085-.988.215-1.489.386-1.489h1.122c.086,0,.3.377.625,1.121l-.514.864-.239-.11h-.129c-.415,0-1.047.037-1.877.111Zm61.1-4.286h-.111V36.4l.111-.239h.238v.111a.211.211,0,0,0-.238.237Zm-76.122,0h-.111V36.4l.111-.239h.239v.111a.212.212,0,0,0-.239.237ZM222.6,35.792h-.239v-.129a.212.212,0,0,0,.239-.239h.129v.129l-.128.238Zm-85.925-3.218h-3.862v-1.25h.626l.5-.625h1.121v-.257h-3a.973.973,0,0,0-.11-.368h.11c0-.195-.334-.319-.993-.368v-.753c.66,0,.993-.378.993-1.122V27.7l-.11-.239c.074,0,.11-.044.11-.129v-.754c0-.417-.036-1.03-.11-1.876a.1.1,0,0,0,.11-.11,7.3,7.3,0,0,1,1.012.11c.1,0,.488-.035,1.232-.11a3.867,3.867,0,0,1,.515.11.1.1,0,0,1,.111-.11l.257.11.257-.11a6.4,6.4,0,0,1,2.483.367c1.489,1.037,2.244,2,2.244,2.869v.994a5.8,5.8,0,0,1-.239,1.508l.239.111h1.121c0,.586-.415.883-1.232.883C139.482,32.153,138.343,32.574,136.671,32.574Zm98.394-3.035H234.7V29.3h.129a.212.212,0,0,1,.239.237ZM152.874,19.9h-.239c-.147,0-.233-.087-.257-.257,0-.135.087-.222.257-.258h.239a.258.258,0,0,1,0,.516Z" transform="translate(0 0)"/>
</svg>
