<svg id="Group_1" data-name="Group 1" xmlns="http://www.w3.org/2000/svg" width="375" height="69" viewBox="0 0 375 69">
  <rect id="Rectangle_1" data-name="Rectangle 1" width="375" height="69" fill="#c71616"/>
  <path id="Path_1" data-name="Path 1" d="M21.621-15.937a15.964,15.964,0,0,1,7.963,2.06v.11a3.927,3.927,0,0,0-1.085.129v.11q2.722,1.287,5.665,5.315,1.177,0,1.453.717,0,.166-.717.368,0,.552-3.991,2.3a5.933,5.933,0,0,1-2.538,1.2h-.956l-2.3-2.759q-.883-.46-.956-.736v-.11h.478V-7.5a8.915,8.915,0,0,1-1.563-.717h-.5a3.074,3.074,0,0,1-1.8-.478H18.844a.984.984,0,0,0-.478.11l-.239-.11q-4.175,1.306-5.444,3.384a2.575,2.575,0,0,1-1.563.478v.11q.037.257.239.257.239,0,.239-.129l1.214.129h2.17v.11a.211.211,0,0,1-.239.239H11.837q-.717.478-1.435,4.1V.965a14.18,14.18,0,0,0,.717,3.862l-.239.11H9.666l-.717.129a.873.873,0,0,0-.368-.129l-.239.129a.873.873,0,0,0-.368-.129v.129A7.591,7.591,0,0,0,11.23,8.928a3.809,3.809,0,0,0,1.692.846h3.016a16.461,16.461,0,0,0,4.12.846,14.528,14.528,0,0,1,3.127-.846.873.873,0,0,0,.368.129q2.74-1.839,2.887-2.3A9.434,9.434,0,0,0,28.37,5.066V4.937H18.715a.211.211,0,0,1-.239-.239V1.333q.607-.368.607-.607l-.11-.239a1.1,1.1,0,0,0,.11-.5q-.607-.147-.607-.349a1.361,1.361,0,0,0,.239-.368q.257,0,.257.129,1.416-.129,2.041-.129H33.575a.933.933,0,0,1,.478.129.872.872,0,0,1,.478-.129H36.7l.736.846V.836q-.607.331-.736,1.582-.11,1.766-.11,2.409.607,0,.607.239v.129Q35.819,9.9,34.771,9.9a.872.872,0,0,0-.478-.129Q31.46,14.887,24.159,17.26a18.948,18.948,0,0,1-3.016.368h-2.3a16.751,16.751,0,0,1-14.6-7.853H.986q-.607-.331-2.06-4.1V4.937H2.181L1.7,1.075V.487q.533-4.6.956-4.6,2.336-.11,3.035-.11v-.239H5.565Q4.3-4.461,1.7-4.589q0-.184,1.214-.478a16.219,16.219,0,0,1,7.228-8.57,6.079,6.079,0,0,0,3.274-.846A20.1,20.1,0,0,1,21.621-15.937ZM.728-4.957H1.1v.368a3.621,3.621,0,0,1-.478.129L.489-4.718Q.526-4.957.728-4.957ZM16.673-.727q1.2.092,1.2.368a.211.211,0,0,1-.239.239H16.545a.211.211,0,0,1-.239-.239Q16.306-.543,16.673-.727ZM15.092-.6h.257q.239.037.239.239V-.12h-.5a.211.211,0,0,1-.239-.239Q14.889-.6,15.092-.6Zm23.449-15.43h8.626q.239,0,.368,1.508.625,0,.625.239v2.63l-.993.754H46.044q-.257.037-.257.239v.257h1.379q.239.037.239.239v13l-.11.239q.864.184.864.386v7.485q.037.257.257.257.239,0,.239-.129l1.251.129h9.38l.239.129-.11.625v3.752q0,.239-.257.239l-.754-.129a1.19,1.19,0,0,1-.625.129v.257q.092,0,.754.11l.754-.11.129.239v1.122a.228.228,0,0,1-.257.257H42.532q-1.048,0-3.366-.129V16.579q0-.184-.368-.368H37.676v-.257H38.8q.166,0,.368-.368V3.595q-.864-.478-.864-.625V-10.162q0-.239-1.508-.368v-.129a3.163,3.163,0,0,0,2-.754q.368,0,.368-.239v-2.262q0-.736-.864-.736v-1.122Q38.338-16.029,38.541-16.029Zm41.141.055a13.584,13.584,0,0,1,7.246,1.821,1.054,1.054,0,0,1-.478.11v.239q.441,0,3.366,2.3a2.657,2.657,0,0,1,1.453.478h1.343l.589.129v.129a.211.211,0,0,1-.239.239h-.607q-.11,0-.11-.129a1.146,1.146,0,0,1-.607.129v.11a19.554,19.554,0,0,1,4.1,8.221l-.349.239H92.483v.129a9.7,9.7,0,0,1,2.06.11,1.305,1.305,0,0,1,.607-.11h.239q.478,0,.478,2.3.037.239.239.239h1.214a.1.1,0,0,1,.11.11l.257-.11h.11q.736.074.736.349a16.425,16.425,0,0,1-2.3,8.111L96,9.278H93.7l-.5.368H92q-.239.037-.239.239,1.324,0,1.324.129a16.712,16.712,0,0,1-8.7,6.878,21.138,21.138,0,0,1-5.2.736H77.861a4.875,4.875,0,0,1-1.931-.257.873.873,0,0,1-.368.129,16.759,16.759,0,0,1-8.331-3.513,21.538,21.538,0,0,1-3.752-3.973A.872.872,0,0,0,63,9.885H61.916V9.646h1.2q0-.368.257-.368h1.563l.607-.11a16.454,16.454,0,0,1-2.06-6.529V2.271l.129-.239q.11,0,.11.129,1.821-.129,2.667-.129h1.8V1.9a.211.211,0,0,0-.239-.239h-4.34q-.147,0-.607-.846h-2.06A.211.211,0,0,1,60.7.579q0-.239.975-.368V-.267a.975.975,0,0,1-.368-.11.975.975,0,0,1-.368.11.975.975,0,0,1-.11-.368,18.188,18.188,0,0,1,3.127-8.442q1.067-1.453,1.949-1.453,1.563,0,1.563-.368a1.454,1.454,0,0,0-.717-.239h-.129l-.607.11-.11-.239.11-.239q-.478,0-.478-.239a27.12,27.12,0,0,1,3.384-2.3h1.324Q73.484-15.974,79.682-15.974ZM69.64-.874v.239l.736.5V.1q0,.239-.257.239H69.53V.707H71.7q.2,0,.368.846,2.593.11,3.862.11h.956V1.9q0,.257-.239.257a.767.767,0,0,0-.349-.129.114.114,0,0,0-.129.129l-.607-.129q-.441,0-3.384.129v.589a10.156,10.156,0,0,0,3.016,5.333q1.343.92,1.343,1.085l-.239.11H74.606l.11.239v.129H74v.239h1.453a13.483,13.483,0,0,0,2.887.607,11.794,11.794,0,0,0,2.3-.368.211.211,0,0,0-.239-.239h-.607V9.646h1.324q.129,0,1.692-.368h1.214a.984.984,0,0,0,.478-.11.975.975,0,0,0,.368.11A9.352,9.352,0,0,0,89.1,4.809a20.129,20.129,0,0,0,.717-2.777V1.057q0-.2-1.2-.349l-.239.11h-.846q-.5,0-.5-2.409L86.45-1.72h-4.12v-.239Q84.151-2.07,85-2.07h1.8V-2.2a9.811,9.811,0,0,0-3.623-4.947,9.244,9.244,0,0,0-4.469-1.692q-5.058,0-8.221,5.186A10.357,10.357,0,0,0,69.64-.874ZM61.309,1.664h1.324q.239.037.239.239l-.239.129H61.309Zm29.72.5-.11.239v.11h.11a.211.211,0,0,1,.239-.239V2.16Zm-14.86,1.8H76.3q.239.037.239.239v.368a.211.211,0,0,1-.239.239h-.129a.211.211,0,0,1-.239-.239V4.2Q75.967,3.963,76.169,3.963ZM62.026,5.287h.736l.11.607-.349.239h-.368q-.239,0-.368-.717ZM99.453-16.029q.239,0,.239.129,1.876-.129,2.759-.129h8.717q4.745,0,6.363.864a2.434,2.434,0,0,1,1.379.754.967.967,0,0,0-.129.5q1.949.938,3.366,4.12a14.018,14.018,0,0,1,.883,3.991q0,.46-.368,3,.736,0,.736.257a10.708,10.708,0,0,1-4.487,5.738l-1.876.736v.129a15.265,15.265,0,0,1,1.379,2,1.39,1.39,0,0,1-.625.239l.129.257v.129q-2.262.11-3,.11v.129q.037.257.257.257h3.108l1.122,1.361a1.576,1.576,0,0,1,1.618,1.251v.129q-.625,0-.625.257,3.881,5.573,3.881,5.738-.5.092-.5.239a6.347,6.347,0,0,1,.864,1.508l-.239.11h-6.253q-1.048,0-3.366-.11a12.764,12.764,0,0,1-.993-1.508,1.19,1.19,0,0,1,.625-.129v-.11q-3.623-5.5-3.623-6h.5V9.664a1.5,1.5,0,0,0-1.49-1.232q-.975-1.251-1.508-1.251h-2.244v.625a.1.1,0,0,1-.11.11l.11.257v5.738h1.379q.257.037.257.257,0,.239-.257.239h-1.379q0,.625-.11.625l.11.257v1.49a1.1,1.1,0,0,1-.11.5.987.987,0,0,1,.11.386l-.239.11H100.7q-1.251,0-3.752-.11v-3q.037-.257.257-.257H98.57v-.368H97.209a.228.228,0,0,1-.257-.257V7.31l-.625-.129H93.844a.228.228,0,0,1-.257-.257l.257-.129q3.108-.055,3.108-.239,0-.386.257-.386a.872.872,0,0,0,.368.129l.129-.239v-8.5q.037-.239.239-.239h.625l.129-.754a.872.872,0,0,0-.368-.129q-1.1.129-1.251.129a.878.878,0,0,0-.993-.993v-.625l.864-.5v-8.368l.754-.5v-1.251q.037-.239.239-.239h.883A1.19,1.19,0,0,0,99.453-16.029Zm6.6,6.621a.1.1,0,0,1-.11.11q.11,1.251.11,1.876v.754q0,.129-.11.129l.11.239v.129q0,1.122-.993,1.122V-4.3q.993.074.993.368h-.11a.975.975,0,0,1,.11.368h3V-3.3h-1.122l-.5.625h-.625v1.251h3.862q2.52,0,3.384-1.251,1.232,0,1.232-.883h-1.122l-.239-.11a5.768,5.768,0,0,0,.239-1.508v-.993q0-1.306-2.244-2.869a6.381,6.381,0,0,0-2.483-.368l-.257.11-.257-.11a.1.1,0,0,0-.11.11,3.909,3.909,0,0,0-.515-.11q-1.085.11-1.232.11A7.354,7.354,0,0,0,106.055-9.408Zm-7.1,5.977V-3.3H99.2v-.129Zm.625,0V-3.3h.239v-.129Zm23.578-.129h.368V-3.3h-.368Zm.864,0h.386V-3.3h-.386Zm.625,0h1.122V-3.3h-1.122ZM106.442,6.3l-.257-.129q0,.257-.239.257a.975.975,0,0,1,.11.368q1.251-.11,1.876-.11h.129l.239.11.515-.864q-.5-1.122-.625-1.122h-1.122q-.257,0-.386,1.49Zm-3.752.5v.129q.037.257.257.257h2.244q.239,0,.239-.257V6.795Zm9.986,9.361h.239a.838.838,0,0,0,.257.5v.257q-.166-.018-.5-.625Zm.864,1.251h.129v.257h-.129Zm12.212-33.38h8.589q.257,0,.386,1.361h1.361q.257.055.257.257l-.386.257a3.105,3.105,0,0,0-.5-.129.967.967,0,0,1-.5.129v-.129a.873.873,0,0,1-.368.129V.6q0,.294.993.368a.967.967,0,0,1,.5-.129,1.35,1.35,0,0,0,.257.368V1.59q0,.166-.386.368h-.736q-.386,0-.386-.129l-.607.129H132.98q-.257.037-.257.257v.5a.243.243,0,0,0,.257.239h2.612v8.717a.967.967,0,0,0,.129.5.767.767,0,0,1-.754.625.114.114,0,0,0-.129-.129l-.11.257v3.6q.037.257.239.257a.967.967,0,0,1,.5-.129,2,2,0,0,1,.257.993l-.257.129h-5.481q-1.048,0-3.347-.129V16.91l-.883-.5a.114.114,0,0,0-.129-.129l.129-.883v-.736a.907.907,0,0,0-.129-.5.967.967,0,0,0,.129-.5v-.625q0-.239-1.122-.625a.873.873,0,0,1-.129-.368q.2-.515.386-.515h.5q.221,0,.368,1.122h.625q.257,0,.257-.239V3.209a.228.228,0,0,0-.257-.257q-2.189-.129-2.612-.129l-.129-.239V2.215q0-.184.368-.386a.114.114,0,0,1,.129.129l.257-.129H127a.211.211,0,0,0,.239-.239V1.2L127,.836l-.883.129h-.239q-.184,0-.368-.368V-13.859l.11-.239a1.416,1.416,0,0,0-.736-.129v-.257h.625v-1.232Q125.55-15.974,125.752-15.974Zm.625,1.618q.037.257.257.257h.239a.228.228,0,0,0,.257-.257.228.228,0,0,0-.257-.257h-.239Q126.378-14.558,126.378-14.355ZM155.8-15.974a13.584,13.584,0,0,1,7.246,1.821,1.054,1.054,0,0,1-.478.11v.239q.441,0,3.366,2.3a2.657,2.657,0,0,1,1.453.478h1.343l.589.129v.129a.211.211,0,0,1-.239.239h-.607q-.11,0-.11-.129a1.146,1.146,0,0,1-.607.129v.11a19.554,19.554,0,0,1,4.1,8.221l-.349.239H168.6v.129a9.7,9.7,0,0,1,2.06.11,1.305,1.305,0,0,1,.607-.11h.239q.478,0,.478,2.3.037.239.239.239h1.214a.1.1,0,0,1,.11.11l.257-.11h.11q.736.074.736.349a16.425,16.425,0,0,1-2.3,8.111l-.239.11h-2.3l-.5.368h-1.2q-.239.037-.239.239,1.324,0,1.324.129a16.712,16.712,0,0,1-8.7,6.878,21.138,21.138,0,0,1-5.2.736h-1.324a4.875,4.875,0,0,1-1.931-.257.873.873,0,0,1-.368.129,16.76,16.76,0,0,1-8.331-3.513,21.539,21.539,0,0,1-3.752-3.973.872.872,0,0,0-.478-.129h-1.085V9.646h1.2q0-.368.257-.368h1.563l.607-.11a16.454,16.454,0,0,1-2.06-6.529V2.271l.129-.239q.11,0,.11.129,1.821-.129,2.667-.129h1.8V1.9a.211.211,0,0,0-.239-.239h-4.34q-.147,0-.607-.846h-2.06a.211.211,0,0,1-.239-.239q0-.239.975-.368V-.267a.975.975,0,0,1-.368-.11.975.975,0,0,1-.368.11.975.975,0,0,1-.11-.368,18.189,18.189,0,0,1,3.127-8.442q1.067-1.453,1.949-1.453,1.563,0,1.563-.368a1.454,1.454,0,0,0-.717-.239h-.129l-.607.11-.11-.239.11-.239q-.478,0-.478-.239a27.12,27.12,0,0,1,3.384-2.3h1.324Q149.606-15.974,155.8-15.974ZM145.762-.874v.239l.736.5V.1q0,.239-.257.239h-.589V.707h2.17q.2,0,.368.846,2.593.11,3.862.11h.956V1.9q0,.257-.239.257a.767.767,0,0,0-.349-.129.114.114,0,0,0-.129.129l-.607-.129q-.441,0-3.384.129v.589a10.156,10.156,0,0,0,3.016,5.333q1.343.92,1.343,1.085l-.239.11h-1.692l.11.239v.129h-.717v.239h1.453a13.483,13.483,0,0,0,2.887.607,11.794,11.794,0,0,0,2.3-.368.211.211,0,0,0-.239-.239h-.607V9.646h1.324q.129,0,1.692-.368h1.214a.854.854,0,0,1,.846,0,9.352,9.352,0,0,0,4.23-4.469,20.13,20.13,0,0,0,.717-2.777V1.057q0-.2-1.2-.349l-.239.11h-.846q-.5,0-.5-2.409l-.589-.129h-4.12v-.239q1.821-.11,2.667-.11h1.8V-2.2A9.811,9.811,0,0,0,159.3-7.146a9.244,9.244,0,0,0-4.469-1.692q-5.058,0-8.221,5.186A10.357,10.357,0,0,0,145.762-.874Zm-8.331,2.538h1.324q.239.037.239.239l-.239.129h-1.324Zm29.72.5-.11.239v.11h.11a.211.211,0,0,1,.239-.239V2.16Zm-14.86,1.8h.129q.239.037.239.239v.368a.211.211,0,0,1-.239.239h-.129a.211.211,0,0,1-.239-.239V4.2Q152.089,3.963,152.291,3.963ZM138.148,5.287h.736l.11.607-.349.239h-.368q-.239,0-.368-.717Zm35.183-21.26h8.442q.257.037.257.239v8.828h2.317q.257.037.257.239v.129q-1.655.129-2.464.129h-.11v.846l-.625.5v.736q.423,0,.864.607h1.471a.243.243,0,0,1,.239.257V2.9a.211.211,0,0,1-.239.239q-.129,0-.129-.11a.984.984,0,0,1-.478.11v.257a.984.984,0,0,0,.11.478.975.975,0,0,1-1.1,1.1V5.1l.864.11.5-.11q.478,0,.736,1.839a.989.989,0,0,1,.368.846l-.5.257a5.979,5.979,0,0,0-1.1-.129h-.129q0,1.2,2.814,2.7a7.5,7.5,0,0,0,2.7.478,7.565,7.565,0,0,0,4.175-2.943q.037-.239.239-.239h.975q1.03,0,1.343-1.232l.129-.607V4a3.06,3.06,0,0,1,.239-1.343q-.239,0-.239-.257V-2.75l.129-.607a3.123,3.123,0,0,0-1.729-.368q0,.129-.11.129,0-.662-.864-.736v-.736l.736-.5q0-.975.239-.975h2.207v-.239q-1.655-.129-2.446-.129v-8.828q.037-.239.239-.239h8.331q.257.037.257.239v8.589q.037.239.239.239h2.078q.257.037.257.239a6.5,6.5,0,0,1-2.207.257h-.257q0,1.1-.717,1.1v.975q.607,0,.607.239l-.129.257.607.11h1.232l.368.257-.129.607V6.206a.872.872,0,0,0,.129.478q-.129,1.232-.368,1.232h-1.471q-.4,0-.846,2.207a12.611,12.611,0,0,1-4.175,5.021q.239.037.239.239v.129a16.433,16.433,0,0,1-7.467,2.078,3.6,3.6,0,0,0-.975.129,22.151,22.151,0,0,1-9.2-1.839,5.146,5.146,0,0,0-2.207-.864,10.916,10.916,0,0,1-4.414-5.756L173.2,8.045l.239-.129H174.8q.166,0,.368-.368l-.129-1.71a.872.872,0,0,0,.129-.368l-.368-.257h-1.471q-.257,0-.257-.239l.257-.11h.846V3.392l.864-.5q0-.736.129-.736l-.129-.864V-.911a5.979,5.979,0,0,1,.129-1.1,1.608,1.608,0,0,1-.129-.846v-.257q0-.11.129-.11,0-.331-.736-.5a.873.873,0,0,1-.368.129v-.129l-.257.129h-.478q-.331-.607-.5-.607H172.6v-.368l-.129-.625q.736,0,.736-1.343h2.446v-.239q-1.821-.129-2.446-.129l-.129-.239v-8.589A.243.243,0,0,1,173.331-15.974ZM196.6,1.425a.211.211,0,0,1-.239.239v.129h.239l.129-.239V1.425Zm18.778-17.509a.872.872,0,0,0,.478.129h.368a6.792,6.792,0,0,1,3.513.607h.717a18.271,18.271,0,0,1,3.145,1.2h1.214q.184,0,.368.368a1.945,1.945,0,0,1-.975.129,11.277,11.277,0,0,1,2.189,2.17v.129q-.055.2-4.616,4.469h-1.692q-2.464-2.372-3.752-2.538h-.11q-2.428,0-2.428.975-.515,0-.607,1.692l.129.607H214.4a1.919,1.919,0,0,1,1.085.607q.846.166.846.478l-.11.239.239.129h2.906v.368h-2.428v.11q.037.331,2.538,1.214A20.19,20.19,0,0,1,227.107.873a7.692,7.692,0,0,0,1.214,1.453q-1.453.11-1.453.349.276,0,.368.607h1.453q.331,0,.717,1.453l-.239.129h-1.214q-.239.037-.239.239H229.3q.166,0,.349.368V5.71a.211.211,0,0,1-.239.239h-1.214v.129q0,.625.129,2.06a10.4,10.4,0,0,1-1.453,4.727q-.239.037-.239.239v.239h1.692q.239.037.239.239A9.425,9.425,0,0,0,227,15.163q-3.163,2.409-8.607,2.409h-.11a14.976,14.976,0,0,1-10.906-4.12q-3.145-.2-3.145-1.324a3.107,3.107,0,0,1-1.214-1.931,30.975,30.975,0,0,1,2.777-1.692l.5.11a35.272,35.272,0,0,0,3.513-2.06h1.453q.2,0,1.324,1.821v.239h-.368v.239a6.261,6.261,0,0,0,4.12,1.821q3.145-.515,3.145-3.035a5.684,5.684,0,0,0-.607-1.692h1.214v-.11a1.016,1.016,0,0,0-.956-.607h-1.214a9.131,9.131,0,0,1-1.343-.129l-.239.129a.873.873,0,0,0-.368-.129V4.864h.129q.331,0,2.428-.129V4.5l-3.4-1.085a3.3,3.3,0,0,1-.846-.129.872.872,0,0,1-.478.129,12.8,12.8,0,0,0-2.189-.736V2.436h.864V2.2q-3.752-1.4-5.094-3.752a5.637,5.637,0,0,1-1.085-2.777l.239-.129h.478a.114.114,0,0,1,.129.129,1.366,1.366,0,0,1,.717-.129V-4.7h-1.563v-.239q.607,0,.607-.239l-.846-.5q-.184-.478-.368-.478h-1.343v-.975a8.433,8.433,0,0,1,3.513-6.658h.368a.114.114,0,0,1,.129.129l.239-.129.239.129q.736-.129.736-.368l-.257-.129h-.717v-.11q1.563-.9,1.563-1.085,0-.349,2.906-.607h1.821A.967.967,0,0,0,215.374-16.084ZM208.348-4.7v.239h.11V-4.7Zm.349,0v.239h.368a.211.211,0,0,0-.239-.239Zm-5.315,0h.239v.239h-.239Zm.607,0h.349v.239h-.349Zm9.324,9.563h1.2v.368l-.846-.129h-.349Zm-3.641,2.17v.257h.129V7.034ZM242.5-16.029h17.692q.165,0,.368.368v4.248q0,.166.368.368h.5a1,1,0,0,0,.515-.129q.607.166.607.368v.257a.211.211,0,0,1-.239.239h-.625v.625a.228.228,0,0,1-.257.257h-8.589q-1.306,0-3.973.129v1.122q.037.239.239.239h1.122q.257.037.257.257v5.352h10.833q.239.037.239.239V-.212q0,.239-1.361.368l-.258-.129L259.2.156a.988.988,0,0,0-.386-.129l-.129.625V2.767l.129,1.251-.368.257H247.853q0,.423-.864.5l-.754-.129H246q-.257.037-.257.257v.11h.754l1.251.129v4.12q0,.662.736.736a.967.967,0,0,0,.129.5.967.967,0,0,0-.129.5v.129h11.844q.239,0,.368,1.251h1.858q.257.037.257.239a.228.228,0,0,1-.257.257h-1.361l-.625.129v4.727H240.147a.114.114,0,0,1-.129-.129l-.257.129h-.736q-.184,0-.386-.368v-.257a.114.114,0,0,1,.129-.129l-.129-.239v-3l-.625-.11h-1.1a.228.228,0,0,1-.257-.257V13.1a.243.243,0,0,1,.257-.239q2.078-.129,3.237-.129h.5V12.5l-1.251-.129h-.5q-.257,0-.257-.368l.129-.257a.967.967,0,0,1-.129-.5q0-.166.754-.368a1,1,0,0,0,.129-.515q0-.533-.883-.607V5.507l.129-.239-.239-.129H236.91q-.257,0-.257-.239.037-.257.257-.257h1.49q.239,0,.239-.257V.284q0-.257.386-.257t2.354-.11v-7.6q0-.386-1.361-.386h-.257v-1.986l.883-.5v-.257q0-.239-.257-.239H238.9a.228.228,0,0,1-.257-.257v-4.359l.129-.239Q241.269-16.029,242.5-16.029ZM237.774-1.077h.625q.239.037.239.239v.625a.211.211,0,0,1-.239.239h-.625q-.257,0-.257-.239V-.838Q237.572-1.077,237.774-1.077Zm4.488,13.812h1.122V12.5H242.5Q242.262,12.533,242.262,12.735Zm13.444.129v.5q.037.257.257.257h1.729a.881.881,0,0,1,.129-.386.872.872,0,0,1-.129-.368Zm9.729-28.838q1.2,0,5.462.129,4.359,6.382,4.855,6.584.478,0,1.361.864H281.1a.243.243,0,0,1,.239.257.211.211,0,0,1-.239.239h-.386a1.1,1.1,0,0,1-.5-.11,1.025,1.025,0,0,1-.5.11,1.1,1.1,0,0,1-.5-.11l-.736.11h-.754l-.239-.11-.129.239Q278.842-5.8,284.58,2.546l-.625.257A17.058,17.058,0,0,0,286.2,5.783l.129-.625V4.533a3.039,3.039,0,0,0-.754-1.729q.625-.129.625-.257a3.466,3.466,0,0,1-.625-1.232.873.873,0,0,1,.368-.129,1.418,1.418,0,0,1-.368-.864v-6.6q-.625,0-.625-.11l-.239.11q-.257,0-.257-.239v-.129q.037-.257.257-.257h.864V-9.132q-.754,0-.754-.257v-6.216l.129-.239q2.483-.129,3.733-.129h4.469a.114.114,0,0,1,.129.129l.257-.129a.243.243,0,0,1,.239.257v6.455q.809,0,.883.368v1.747q0,.184-.386.368h-.736v.386h.736q.184,0,.386.368v8.46l-.883.5V7.77q0,.166-.736.5l.11.883v2.979q.625,0,.625.239v4.6l.129.625-.258.129h-5.591q-1.232,0-3.733-.129-3.421-5.278-3.973-5.462-.57,0-1.232-1.379a12.718,12.718,0,0,1-1.876-2.722h.368V7.77L274.134,2.8q.625-.129.625-.257L273.012.064V-1.684a5.585,5.585,0,0,0-1.361-2.483h-.129v6.6l-.736.5v.239h1.361a.243.243,0,0,1,.239.257V3.8q0,.184-.368.368h-1.232l-.129,1.49V9.388l.129.625a1.157,1.157,0,0,1-.754.239v.754l.625.5v4.23l.129.736a.967.967,0,0,0-.129.5l.129.625-.257.129h-5.462q-1.067,0-3.366-.129l-.129-.239v-.129a.114.114,0,0,1,.129-.129l-.129-.239V11.5l-.607-.5v-.5l.607-.5V4.422q0-.184.386-.386h1.1q.257,0,.258-.239V3.429a.228.228,0,0,0-.258-.257H261.83q-.257,0-.257-.239.037-.257.257-.257h.625V2.436a1.357,1.357,0,0,1,.11-.625l-.11-.625.11-.5q0-.129-.11-.129l.11-.625V-.3q0-.5-.11-.5l.11-.883v-.5q0-1.618-.11-4.212l.11-.257-.11-.257q.11-.993.368-.993h1.122q.864,0,2.722-.11v-.257h-.11a5.492,5.492,0,0,1-1.379-.129,10.286,10.286,0,0,1-1.618.129q-1.232,0-1.232-.864-.754,0-.754-.368v-6.106l.129-.239Q264.368-15.974,265.435-15.974Zm-4.469,9.067h.239q.257.055.257.257,0,.276-.625.368l-.129-.239v-.129Q260.745-6.907,260.966-6.907Zm22.364,0h.129q.257.055.258.257v.129q0,.239-.258.239-.184,0-.368-.368Q283.127-6.907,283.33-6.907Zm3.108,8.717a.243.243,0,0,0,.257.239V1.811Zm.5.368v.257h.129V2.179ZM299.9-16.029H307q7.6,0,11.862,3.494a19.559,19.559,0,0,1,4.616,5.113h1.747a13.63,13.63,0,0,1,2.244,6.6v.257a1.349,1.349,0,0,1-.257.368l-.625-.11h-.993V.3a.228.228,0,0,1-.258.257h-1.361v.993h1.361q.257.037.258.257V2.05a17.587,17.587,0,0,1-2.115,7.117q-.257.037-.258.257v.11h2.373a.243.243,0,0,1,.239.257,1.475,1.475,0,0,1-.736.239h-2.133l-1.858,2.262h-2.372q-1.876,0-1.876.607v.129h3.237q.257.037.257.257a5.966,5.966,0,0,0-1.49,1.122,15.75,15.75,0,0,1-9.1,3.366H296.02V13.287q0-.257-.239-.257h-.257q-3.237,0-3.237-.368v-.129a.243.243,0,0,1,.257-.239h3.237q.239,0,.239-.257v-2q.828,0,2.5-.11V9.664q-1.692-.129-2.372-.129L296.02,9.3V1.94q0-.184-.368-.386H294.53a.211.211,0,0,1-.239-.239v-.5q0-.294.993-.386l.239.129.883-.754q1.618,0,1.618-.368v-6.6q0-.294-2-.515v-7.982l.129-.239Q298.65-16.029,299.9-16.029Zm5.113,6.989v1.361q.037.257.239.257h1.508a.243.243,0,0,1,.239.257v6.6q0,.092-.368.368l-.625-.11h-.754l-.5.864h-1.122a.243.243,0,0,0-.239.257v.736h1.361q.11,0,.386.386l-.129.625V7.42a.967.967,0,0,0,.129.5.967.967,0,0,0-.129.5v.5l.129.625h1.49a1.022,1.022,0,0,0,.993,0l.129.257-.5.239q-.257,0-.257-.11l-.864.11h-.993l-.129.625v.257q.037.257.239.257h2.63a12.389,12.389,0,0,0,3.991-1.14q1.876-.11,2.74-.11l.129-.257q-1.251-.129-1.876-.129h-.239V9.3a9.539,9.539,0,0,0,3.366-4.874l.625-2.612-.386-.257H315.11a.211.211,0,0,1-.239-.239v-.5q0-.184.368-.386a.114.114,0,0,1,.129.129,1.447,1.447,0,0,0,1.49-.754h.754l.864-.11V-.562a11.26,11.26,0,0,0-3.6-6.731q-2.74-.221-3.384-.883A7.287,7.287,0,0,0,308.121-9.3h-2.869A.243.243,0,0,0,305.013-9.04Zm-9.6,1.618h.239q.257.037.257.257v.239q0,.221-.625.368l-.129-.239v-.368Q295.192-7.422,295.413-7.422ZM313.124-.194h1.361q.257.037.257.257V.192q0,.239-.257.239h-1.122a.211.211,0,0,1-.239-.239ZM293.151.431h.257q.257.037.257.257v.625q0,.239-.257.239h-.5V.689Q292.948.431,293.151.431Z" transform="translate(26 34)" fill="#fff"/>
</svg>
